<svg width="100" viewBox="0 0 84 24" xmlns="http://www.w3.org/2000/svg" length="auto" fill="currentColor" stroke="none"><path d="M.402 11.7c0-1.7.3-3.24.9-4.62.62-1.4 1.45-2.59 2.49-3.57 1.06-.98 2.28-1.74 3.66-2.28 1.4-.54 2.87-.81 4.41-.81 1.76 0 3.45.38 5.07 1.14 1.62.74 3.02 1.8 4.2 3.18l-2.88 2.76c-.96-1.04-1.97-1.82-3.03-2.34a7.49 7.49 0 0 0-3.45-.81c-1.02 0-1.98.19-2.88.57-.88.36-1.65.87-2.31 1.53-.66.64-1.19 1.41-1.59 2.31-.38.9-.57 1.88-.57 2.94 0 1.1.19 2.11.57 3.03.38.92.9 1.7 1.56 2.34.66.64 1.44 1.14 2.34 1.5.92.36 1.91.54 2.97.54 1.34 0 2.5-.26 3.48-.78 1-.54 2.01-1.32 3.03-2.34l2.79 2.91c-.72.7-1.42 1.31-2.1 1.83-.68.52-1.39.95-2.13 1.29-.74.34-1.53.59-2.37.75-.82.18-1.74.27-2.76.27-1.68 0-3.22-.28-4.62-.84-1.4-.56-2.61-1.34-3.63-2.34-1-1-1.78-2.19-2.34-3.57-.54-1.4-.81-2.93-.81-4.59ZM28.01.42V22.5h-3.99V.42h3.99Zm2.797 14.1c0-1.08.19-2.12.57-3.12.38-1.02.93-1.92 1.65-2.7.72-.78 1.59-1.4 2.61-1.86 1.02-.46 2.17-.69 3.45-.69 1.26 0 2.41.22 3.45.66 1.04.42 1.93 1.01 2.67 1.77s1.31 1.67 1.71 2.73c.42 1.06.63 2.22.63 3.48v.45c0 .12-.01.27-.03.45h-12.84c.2 1.2.71 2.12 1.53 2.76.82.62 1.8.93 2.94.93.96 0 1.77-.15 2.43-.45.66-.3 1.33-.74 2.01-1.32l2.85 2.37c-.36.4-.78.78-1.26 1.14-.48.34-1.02.65-1.62.93-.6.26-1.27.47-2.01.63-.72.16-1.52.24-2.4.24-1.26 0-2.41-.22-3.45-.66a8.387 8.387 0 0 1-2.64-1.77 8.18 8.18 0 0 1-1.68-2.67 9.54 9.54 0 0 1-.57-3.3Zm4.05-1.98h8.67c-.28-.94-.81-1.67-1.59-2.19-.78-.54-1.71-.81-2.79-.81-1 0-1.87.25-2.61.75-.72.48-1.28 1.23-1.68 2.25Zm14.759 2.01c0-1.24.19-2.37.57-3.39.4-1.04.94-1.93 1.62-2.67.68-.74 1.47-1.31 2.37-1.71.92-.42 1.9-.63 2.94-.63 1.9 0 3.57.72 5.01 2.16V6.57h3.99V22.5h-3.99v-1.68c-.7.7-1.44 1.23-2.22 1.59-.78.34-1.68.51-2.7.51-1.02 0-1.99-.2-2.91-.6-.9-.42-1.7-1-2.4-1.74s-1.26-1.62-1.68-2.64c-.4-1.04-.6-2.17-.6-3.39Zm8.31 4.71c.62 0 1.19-.11 1.71-.33.54-.22 1-.54 1.38-.96.4-.42.71-.92.93-1.5.24-.6.36-1.26.36-1.98 0-.7-.11-1.33-.33-1.89-.22-.58-.53-1.07-.93-1.47-.38-.42-.84-.74-1.38-.96-.52-.24-1.1-.36-1.74-.36-.66 0-1.26.13-1.8.39-.52.24-.97.57-1.35.99-.36.42-.64.92-.84 1.5-.2.56-.3 1.17-.3 1.83 0 .68.1 1.31.3 1.89.22.58.52 1.08.9 1.5.38.42.83.75 1.35.99.54.24 1.12.36 1.74.36Zm12.217 3.24V6.57h3.45v2.01c.38-.84.87-1.45 1.47-1.83.6-.4 1.23-.6 1.89-.6.4 0 .74.05 1.02.15.28.08.52.17.72.27l-1.23 3.42c-.16-.08-.34-.15-.54-.21-.2-.08-.41-.12-.63-.12-.62 0-1.14.36-1.56 1.08-.4.72-.6 1.88-.6 3.48v8.28h-3.99Zm9.196-1.89c0-.64.22-1.18.66-1.62.46-.44 1.01-.66 1.65-.66.64 0 1.18.22 1.62.66.44.44.66.98.66 1.62 0 .64-.22 1.19-.66 1.65-.44.44-.98.66-1.62.66-.64 0-1.19-.22-1.65-.66-.44-.46-.66-1.01-.66-1.65Z"></path></svg>