<svg viewBox="0 0 223 45" xmlns="http://www.w3.org/2000/svg" height="30" width="100" fill="currentColor" stroke="none"><path d="M.04 43.52v-2.64l.48-.48h1.92c.6 0 1.14-.24 1.62-.72.52-.52.78-1.08.78-1.68V8c0-.6-.26-1.14-.78-1.62-.48-.52-1.02-.78-1.62-.78H.52l-.48-.48V2.48L.52 2H31l.6.6v1.8l-1.68 7.56-.48.48h-2.16l-.48-.48c-.24-2.08-.82-3.66-1.74-4.74S22.92 5.6 21.4 5.6h-5.64c-.6 0-1.16.26-1.68.78-.48.48-.72 1.02-.72 1.62v14.1h6.84c.6 0 1.14-.26 1.62-.78.52-.52.78-1.06.78-1.62v-.72l.48-.48h2.64l.48.48v9.84l-.48.48h-2.64l-.48-.48v-.72c0-.6-.26-1.14-.78-1.62-.48-.52-1.02-.78-1.62-.78h-6.84V38c0 .6.24 1.16.72 1.68.52.48 1.08.72 1.68.72h1.92l.48.48v2.64l-.48.48H.52l-.48-.48Zm33.691 0v-2.64l.48-.48h.72c.6 0 1.14-.24 1.62-.72.52-.52.78-1.08.78-1.68V22.88c0-.6-.26-1.14-.78-1.62-.48-.52-1.02-.78-1.62-.78h-.72l-.48-.48v-1.62l.36-.48 8.76-3.54h1.92l.48.48-.6 4.56c.8-1.76 1.94-3.18 3.42-4.26 1.48-1.08 3.16-1.62 5.04-1.62 1.44 0 2.62.44 3.54 1.32.96.84 1.44 1.92 1.44 3.24 0 1.24-.44 2.3-1.32 3.18-.84.84-1.9 1.26-3.18 1.26-1.24 0-2.28-.4-3.12-1.2-.84-.84-1.3-1.86-1.38-3.06-1.16.72-2.1 1.9-2.82 3.54-.68 1.6-1.02 3.44-1.02 5.52V38c0 .6.24 1.16.72 1.68.52.48 1.08.72 1.68.72h.72l.48.48v2.64l-.48.48h-14.16l-.48-.48Zm40.117 1.32c-2.64 0-5.04-.62-7.2-1.86-2.12-1.24-3.82-3.02-5.1-5.34-1.24-2.32-1.86-5.04-1.86-8.16 0-3.32.7-6.18 2.1-8.58 1.4-2.4 3.26-4.22 5.58-5.46 2.32-1.28 4.8-1.92 7.44-1.92 4.04 0 7.34 1.56 9.9 4.68h.3l2.94-3.84h2.46l.48.48v21.24c0 .6.24 1.16.72 1.68.52.48 1.08.72 1.68.72h.72l.48.48v1.62l-.48.48-8.28 3.54h-1.92l-.48-.48V40.1c-1.2 1.52-2.56 2.7-4.08 3.54-1.48.8-3.28 1.2-5.4 1.2Zm1.56-3.96c2.52 0 4.4-1.08 5.64-3.24 1.28-2.2 1.92-5.02 1.92-8.46 0-3.44-.64-6.24-1.92-8.4-1.24-2.2-3.12-3.3-5.64-3.3-2.52 0-4.42 1.1-5.7 3.3-1.24 2.16-1.86 4.96-1.86 8.4 0 3.44.62 6.26 1.86 8.46 1.28 2.16 3.18 3.24 5.7 3.24Zm22.894 2.64v-2.64l.48-.48h.72c.6 0 1.14-.24 1.62-.72.52-.52.78-1.08.78-1.68V22.88c0-.6-.26-1.14-.78-1.62-.48-.52-1.02-.78-1.62-.78h-.72l-.48-.48v-1.62l.36-.48 8.76-3.54h1.92l.48.48-.6 4.02c1.12-1.64 2.56-2.94 4.32-3.9 1.76-.96 3.76-1.44 6-1.44 3.24 0 5.8.88 7.68 2.64 1.92 1.72 2.88 4.26 2.88 7.62V38c0 .6.24 1.16.72 1.68.52.48 1.08.72 1.68.72h.72l.48.48v2.64l-.48.48h-14.16l-.48-.48v-2.64l.48-.48h.72c.6 0 1.14-.24 1.62-.72.52-.52.78-1.08.78-1.68V24.08c0-1.92-.52-3.36-1.56-4.32-1-.96-2.36-1.44-4.08-1.44-1.96 0-3.58.72-4.86 2.16-1.24 1.4-1.86 3.3-1.86 5.7V38c0 .6.24 1.16.72 1.68.52.48 1.08.72 1.68.72h.72l.48.48v2.64l-.48.48h-14.16l-.48-.48Zm38.9 0v-2.64l.48-.48h.72c.6 0 1.14-.24 1.62-.72.52-.52.78-1.08.78-1.68V9.32c0-.6-.26-1.14-.78-1.62-.48-.52-1.02-.78-1.62-.78h-.72l-.48-.48V4.82l.36-.48 9.36-3.54h1.92l.48.48-.6 5.64v22.02l10.2-9.18c.36-.32.54-.66.54-1.02 0-.52-.34-.78-1.02-.78h-1.2l-.48-.48v-2.64l.48-.48h10.98l.48.48v2.64l-.48.48h-1.08c-.56 0-1 .12-1.32.36-.32.2-.9.68-1.74 1.44l-6.96 6.24 8.64 13.02c.32.52.64.88.96 1.08.36.2.76.3 1.2.3h1.74l.48.48v2.64l-.48.48h-9.72l-.78-.48-7.74-12.12-2.7 2.58V38c0 .6.24 1.16.72 1.68.52.48 1.08.72 1.68.72h.72l.48.48v2.64l-.48.48h-14.16l-.48-.48Zm43.896-33.24c-1.36 0-2.54-.48-3.54-1.44-.96-1-1.44-2.18-1.44-3.54 0-1.4.48-2.58 1.44-3.54 1-.96 2.18-1.44 3.54-1.44 1.4 0 2.58.48 3.54 1.44s1.44 2.14 1.44 3.54c0 1.36-.48 2.54-1.44 3.54-.96.96-2.14 1.44-3.54 1.44Zm-7.62 33.24v-2.64l.48-.48h.72c.6 0 1.14-.24 1.62-.72.52-.52.78-1.08.78-1.68V22.88c0-.6-.26-1.14-.78-1.62-.48-.52-1.02-.78-1.62-.78h-.72l-.48-.48v-1.62l.36-.48 9.36-3.54h1.8l.6.6-.6 5.52V38c0 .6.24 1.16.72 1.68.52.48 1.08.72 1.68.72h.72l.48.48v2.64l-.48.48h-14.16l-.48-.48Zm34.355 1.32c-3.08 0-5.82-.7-8.22-2.1-2.4-1.4-4.28-3.3-5.64-5.7-1.32-2.44-1.98-5.14-1.98-8.1 0-2.88.68-5.5 2.04-7.86 1.4-2.36 3.28-4.2 5.64-5.52 2.4-1.36 5.06-2.04 7.98-2.04 3.2 0 5.9.72 8.1 2.16 2.2 1.44 3.84 3.36 4.92 5.76 1.08 2.36 1.62 5 1.62 7.92l-.48.48h-22.32c0 1.76.42 3.36 1.26 4.8.84 1.4 2.02 2.52 3.54 3.36 1.52.8 3.28 1.2 5.28 1.2 4.92 0 8.7-2 11.34-6l.48-.24.9.36.18.48c-.96 3.4-2.74 6.1-5.34 8.1-2.6 1.96-5.7 2.94-9.3 2.94Zm4.2-18.84c.84 0 1.44-.2 1.8-.6.4-.44.6-.98.6-1.62 0-1.96-.62-3.52-1.86-4.68-1.24-1.16-2.86-1.74-4.86-1.74-2.32 0-4.24.8-5.76 2.4-1.48 1.56-2.3 3.48-2.46 5.76l.48.48h12.06Z"></path></svg>