<svg width="100" viewBox="0 0 155 19" xmlns="http://www.w3.org/2000/svg" height="40" fill="currentColor" stroke="none"><path d="m.812.308 5.852 18.284h3.808l3.416-10.864h.168L17.5 18.592h3.808L27.16.308h-4.2L19.432 12.32h-.168L15.54.308H12.6L8.848 12.32H8.68L5.18.308H.812Zm46.705 0-4.424 6.356L38.64.308h-4.984l7.28 9.94v8.344h4.032v-8.344L52.22.308h-4.704Zm26.093 0v11.34h-.028L64.26.308h-3.444v18.284h4.032V7.28h.028l9.296 11.312h3.471V.308h-4.031Zm23.986 18.284c3.444 0 5.432-.924 7-2.408 1.708-1.68 2.632-4.088 2.632-6.748 0-2.576-.868-4.872-2.464-6.524C103.14 1.26 100.956.308 97.596.308H89v18.284h8.596Zm-4.592-3.444V3.78h4.452c2.156 0 3.136.532 4.06 1.456 1.008 1.036 1.54 2.492 1.54 4.228 0 1.848-.616 3.304-1.68 4.368-.952.84-1.82 1.316-3.92 1.316h-4.452ZM117.16.308v18.284h14.756v-3.444h-10.752V.308h-4.004Zm32.711 0-4.424 6.356-4.452-6.356h-4.984l7.28 9.94v8.344h4.032v-8.344l7.252-9.94h-4.704Z"></path></svg>